<?xml version="1.0" encoding="UTF-8"?>
<svg id="Layer_1" data-name="Layer 1" xmlns="http://www.w3.org/2000/svg" version="1.1" viewBox="0 0 225.2 225.3">
  <defs>
    <style>
      .cls-1 {
        fill: #fbd143;
      }

      .cls-1, .cls-2, .cls-3, .cls-4, .cls-5, .cls-6, .cls-7 {
        stroke-width: 0px;
      }

      .cls-2 {
        fill: #136577;
      }

      .cls-3 {
        fill: #17697a;
      }

      .cls-4 {
        fill: #16697a;
      }

      .cls-5 {
        fill: #176879;
      }

      .cls-6 {
        fill: #156678;
      }

      .cls-7 {
        fill: #b0316b;
      }
    </style>
  </defs>
  <path class="cls-7" d="M159.1,29.4c-.9,5.4,2.1,8.1,6.1,11.3,8.3,6.7,15.5,14.7,23.4,22,1.8,1.6,4.4,2.4,6.6,3.5-.9.9-1.8,1.9-2.8,2.8,1.1.8,2.2,1.7,3.4,2.3.8.5,1.8.6,2.8.9-3.3,1.8-1.9,4.4-1.1,6.8,7.3,22.1,8.5,44.5,2.5,67.1-1.5,5.7-1.4,6,4.5,7.1-2.7.8-5.4,1.7-8.1,2.5,0,.6,0,1.2,0,1.7,3.2.7,6.4,1.5,9.6,2.2-8-1.5-12.6,2.1-17,8.8-6.6,9.8-15.3,17.9-25.7,23.8-3.3,1.9-4.1,4.5-4.1,7.8-.7-1.3-1.5-2.6-3-5.3-1.3,3.2-2.2,5.3-3.1,7.3-1.1-2.7-2.7-3.1-5.7-2.5-9.4,1.8-18.9,3.8-28.4,4.3-13.7.6-27.1-2-40.2-6.1-2-.6-4.3-.1-6.5-.2-1.1-1.9-2.3-3.7-3.8-6.2-1.1,2.3-1.7,3.4-2.2,4.5-1.2-2.4-1.9-5.2-3.5-7.1-8.3-9.4-16.7-18.7-25.3-27.7-1.5-1.5-4.6-1.4-7-2.1,1.5-.7,3.1-1.4,4.6-2,0-.4.2-.9.2-1.3-2.1-.9-4.2-1.8-6.3-2.7,1.2-.5,2.4-1,3.5-1.5-6.6-25.6-7.1-51.1,1.9-76.3.3-.8-.3-2-.5-3,1.5-1.7,7-1.7,2.4-5.9,1.4-.9,2.9-1.6,4-2.7,8.7-8.6,17.4-17.4,26-26.1,4.1,1.9,4.4-1.8,5.9-3.9,1.8,0,3.7.6,5.3,0,10.7-3.7,21.7-5.8,33.1-5.8,13.9,0,27.7.4,40.8,5,.6-1.6,1.1-2.8,1.5-4,.8,2.1,1.7,4.2,2.5,6.4.5,0,1-.2,1.5-.2.7-1.9,1.4-3.8,2.1-5.6ZM66,53.5c-.4-1-.9-2.1-1.8-4.2-4.5,4.6-8.7,8.8-12.8,13-2,2-.8,3.1,1.2,3.9-2.2,1.1-4.4,2.2-6.5,3.3.1.6.2,1.1.3,1.7,2.5.4,5,.9,7.5,1.3-.8.1-1.6.4-2.4.4-5.7-.2-8.8,2.3-10.5,8.1-5.5,19.1-5.3,38.4-3,57.8,1.5,12.6,2,12.5,14.3,14.2.2,0,.3.1.5.2-2.5.1-5,0-7.5.4-.8.1-1.9,1-2,1.7-.1.7.7,1.9,1.4,2.3,1.8.9,3.7,1.4,5.6,2.1-2.9.9-4.4,2.1-1.7,5,4.2,4.6,8.3,9.4,12.5,14.1.9,1,2.3,1.5,3.6,2.3.5-2.9.9-5.2,1.2-7.4.5,3.7-.3,7.8,4,11,.8-3.9,1.5-7.2,2.2-10.5,1.2,13.5,1.4,13.8,14.5,17.3,19.2,5,38.4,4.3,57.7.7,4.9-.9,7.5-3.4,8.5-8,.8,1.4,1.7,2.9,2.5,4.3.9-1.4,1.9-2.8,2.8-4.2.4-.7.7-1.5,1-2.2.7,1.2,1.3,2.4,2.2,4.1,9.5-7.2,17.7-14.8,24.4-24.9-2.8-.7-4.6-1.2-6.5-1.6.3,0,.7,0,1-.2,2.6-1.3,5.2-2.6,7.8-3.9-2.7-.8-5.3-1.6-8-2.4.6-.2,1.2-.5,1.8-.6,7.8-.5,8.5-.8,10-8.2,4.2-20.5,3.2-40.9-1.8-61.1-1.4-5.8-3.7-10.9-11-10.5,1.7-.9,3.4-1.7,5.1-2.6-1.5-1-3-2.1-4.6-3-1-.5-2.1-.7-3.2-1,1.3-.4,2.6-.9,5.5-1.9-6.7-5.8-12.5-10.8-18.3-15.8-1.9-1.6-3.2-1.1-4.1,1.1-.4-1-.7-2.1-1.4-3-.9-1.1-2.1-2.1-3.2-3.1-.6,1.2-1.4,2.4-1.7,3.7-.4,1.7-.3,3.6-.4,5.4-.2-1.1-.7-2.2-.6-3.3.3-5.7-2.1-8.9-7.8-9.9-20.9-3.7-41.6-3.6-62.3,1.5-6.2,1.5-10.1,4.3-9.7,11.2l-1.9-5.7c-.5,0-1,0-1.5-.1-1,2.4-2,4.9-2.9,7.3Z"/>
  <path class="cls-5" d="M36.2,66.4c4.6,4.2-.9,4.2-2.4,5.9-7.3,0-14.6.1-21.9,0-3.4,0-5,1.1-4.9,4.9.2,23.6.2,47.2,0,70.8,0,3.9,1.6,4.9,5,4.9,5.7,0,11.3,0,17,0,2.1.9,4.2,1.8,6.3,2.7,0,.4-.2.9-.2,1.3-1.5.7-3.1,1.4-4.6,2-9.9.7-19.9,1.4-30.3,2.1v-97.1c12.1.7,24.2,1.5,36.2,2.2Z"/>
  <path class="cls-6" d="M159.1,29.4c-.7,1.9-1.4,3.8-2.1,5.6-.5,0-1,.2-1.5.2-.8-2.1-1.7-4.2-2.5-6.4,0-5.8,0-11.6,0-17.4,0-2.9-1-4.4-4.4-4.4-23.9.1-47.8.1-71.8,0-3.7,0-4.6,1.4-4.5,4.7.1,7.3,0,14.6,0,21.9-1.5,2.1-1.8,5.8-5.9,3.9-.8-12.4-1.5-24.8-2.3-37.6h97.1c-.7,10-1.3,19.7-1.9,29.4Z"/>
  <path class="cls-6" d="M153,202.2c.9-2,1.7-4.1,3.1-7.3,1.5,2.7,2.3,4,3,5.3.7,8.2,1.4,16.4,2.1,25.1H63.9c.8-9.9,1.6-19.6,2.3-29.3.6-1.1,1.1-2.2,2.2-4.5,1.5,2.5,2.6,4.3,3.8,6.2,0,5.5,0,11,0,16.5,0,2.9.9,4.1,4.1,4.1,24.1-.1,48.2-.1,72.4,0,3.1,0,4.2-1.3,4.2-4,0-4,.1-8,.2-12Z"/>
  <path class="cls-2" d="M206,159.8c-3.2-.7-6.4-1.5-9.6-2.2,0-.6,0-1.2,0-1.7,2.7-.8,5.4-1.7,8.1-2.5,3.2-.1,6.3-.2,9.5-.3,3.1,0,4.2-1.3,4.2-4.6-.1-23.8-.1-47.6,0-71.4,0-3.7-1.5-4.6-4.7-4.6-5,0-10,0-15,0-.9-.3-1.9-.4-2.8-.9-1.2-.7-2.3-1.5-3.4-2.3.9-.9,1.8-1.9,2.8-2.8,9.9-.7,19.8-1.4,30.1-2.2v97.2c-6.4-.5-12.8-1-19.2-1.5Z"/>
  <path class="cls-3" d="M152.9,183.9v-24.5c-8.5.8-15.8,1.4-23.5,2.1.3-5.8.7-10.8.9-15.9.2-6.6-.4-7.1-6.9-7.3-4.6-1.5-3.4-3.7-.7-6q7.9-1.3,9.4-10.5c1.1-1.2,2.3-2.4,3.4-3.7.9,1.4,1.9,2.7,2.8,4.1-.1,8,.1,8.3,7.9,8.2,4.8,0,9.5-.4,15.2-.7-.6,6.1-.9,12.1-1.9,18.1-.7,4.1.8,5.4,4.6,5.3,5.3-.2,10.6-.1,15.9-.2,2.7.8,5.3,1.6,8,2.4-2.6,1.3-5.2,2.6-7.8,3.9-.3.1-.6.1-1,.2-6.6,0-13.1,0-20.1,0,0,7.9,0,15.2,0,22.4-.3.7-.6,1.5-1,2.2-.9,1.4-1.9,2.8-2.8,4.2-.8-1.4-1.7-2.9-2.5-4.3ZM138.2,145.4c.1,3.6-.7,7.7,5.1,7.7,7.4,0,9.5-1.9,9.6-9,0-5.1-3.3-5.7-7.4-5.7-6.6,0-7.2.7-7.3,7Z"/>
  <path class="cls-4" d="M124.1,86.9c4.6.7,6.4-1.5,6.2-5.9-.3-5.6-.5-11.1-.8-17.2,7.5.7,14.7,1.4,23.3,2.3,0-4.7,0-9.2,0-13.7.1-1.8,0-3.6.4-5.4.3-1.3,1.1-2.5,1.7-3.7,1.1,1,2.3,1.9,3.2,3.1.7.8.9,2,1.4,3v16.6h16.9c1.1.3,2.3.5,3.2,1,1.6.9,3.1,2,4.6,3-1.7.9-3.4,1.7-5.1,2.6-4.7,0-9.3.1-14-.1-4.5-.2-6.4.9-5.5,5.9,1,5.6,1.2,11.4,1.8,16.7-6.4,0-12.1.1-17.9,0-3.7-.1-5.6,1-5.3,5.1.2,2.3-.1,4.6-.2,7-3.7,2.5-5.3.7-6.1-2.9-.7-4.9,0-10.7-7.6-10.6-1.3-1.3-2.7-2.6-4-3.9l3.9-2.6ZM138.2,78.7c0,7.5.6,8.2,6.6,8.3,6.2,0,8-1.2,8.1-5.5,0-7.2-1.9-9-8.9-9.2-5.3-.2-6.1,2.9-5.8,6.4Z"/>
  <path class="cls-3" d="M52.7,153h13.1c-.8-8.3-1.6-15.6-2.2-22.6,5.5,0,10.5,0,15.6,0,7.4,0,7.6-.3,7.8-8,1-1.3,2.1-2.6,3.3-4.2,1.2,1.6,2,2.6,2.8,3.6.9,9.2,1.9,10.2,11.2,10.4.8,0,1.6,0,2.5,0,2.5,1.6,4.5,3.3,1,5.9-2.8,0-5.7.5-8.5.2-4.5-.4-5.4,1.8-5,5.6.6,5.7,1,11.4,1.5,17.7-7.6-.7-14.8-1.4-23.1-2.2-.2,5-.4,9.8-.5,14.7-.7,3.3-1.4,6.6-2.2,10.5-4.4-3.2-3.5-7.4-4-11,0-4.6,0-9.2,0-14h-15.6c-1.9-.7-3.8-1.2-5.6-2.1-.7-.4-1.5-1.6-1.4-2.3.1-.7,1.2-1.6,2-1.7,2.5-.3,5-.3,7.5-.4ZM79.4,138.3c-6.5,0-7.2.8-7.2,7,0,6.2,1.5,7.6,7.5,7.7,5.9,0,7.1-1.3,7.1-7.4,0-6.6-.7-7.3-7.4-7.3Z"/>
  <path class="cls-3" d="M72.3,51.9v14c8-.7,15.5-1.4,23.4-2.2-.5,6.4-.9,12.3-1.5,18.2-.4,3.5.6,5.4,4.5,5.1,3-.2,6,.1,9,.2,3,2.3,2.2,4.2-.7,5.8-.8,0-1.6.2-2.4.2-10,.4-10.6,1-11.4,11,0,.3,0,.7,0,1-.8,1.1-1.6,2.3-2.6,3.8-1.2-1.1-2.3-2.1-3.3-3q-.7-11.3-12.4-11c-3.6.1-7.2.4-11.3.7.8-7.5,1.5-14.7,2.3-22.9-4.1-.2-8.1-.3-12.1-.5-2.5-.4-5-.9-7.5-1.3-.1-.6-.2-1.1-.3-1.7,2.2-1.1,4.4-2.2,6.5-3.3.3,0,.7,0,1,0q12.4,0,12.5-12.6c1-2.4,2-4.9,2.9-7.3.5,0,1,0,1.5.1.6,1.9,1.2,3.8,1.9,5.7ZM86.9,79.6c0-5.7-1.4-7.3-6.3-7.2-6.8.1-8.4,1.8-8.4,8.5,0,5.5.8,6.1,7.1,6.1,6.4,0,7.6-1.2,7.6-7.4Z"/>
  <path class="cls-1" d="M107,93.1c2.9-1.6,3.7-3.4.7-5.8.8-1.5,2.3-3.2,2.1-4.6-.8-9.9-1.6-19.8-3.2-29.6-.7-4,.6-4.9,3.8-5,4.6-.1,9.3,0,13.7,0-.9,10.3-2.1,20.5-2.6,30.6-.1,2.7,1.7,5.5,2.6,8.2-1.3.9-2.6,1.7-3.9,2.6,1.3,1.3,2.7,2.6,4,3.9-1.3,2.2-3.1,4.3-3.7,6.7-.8,3.1-1.2,7,3.1,8.1,3.7,1,6.7-.4,8.2-4.2.8,3.6,2.4,5.4,6.1,2.9,1.7.4,3.5,1.1,5.2,1,11.2-.8,22.3-1.8,33.8-2.7v17.1c-10.1-1-20.2-2.2-30.4-2.8-2.7-.2-5.5,1.7-8.2,2.6-.9-1.4-1.9-2.7-2.8-4.1-1.1,1.2-2.3,2.4-3.4,3.7-3.6-2-7.7-4.4-11.1-.6-3.2,3.7-.9,7.6,1.6,11.1-2.7,2.4-3.9,4.6.7,6-3.6,5.9-1.8,12.3-1.5,18.5.5,10.2,1.3,20.5,2,31.5-6.2.5-11.7.9-16.9,1.2,1.1-16,2.2-31.2,3.1-46.3,0-1.6-1.4-3.4-2.2-5.1,3.5-2.6,1.6-4.3-1-5.9.9-3.1,2.7-6.3,2.4-9.2-.5-3.9-4.5-3.8-7.6-3.5-2.9.3-5.6,1.5-8.4,2.3-.8-1-1.6-2-2.8-3.6-1.2,1.6-2.3,2.9-3.3,4.2-3.3-.9-6.7-2.8-10-2.6-7.5.4-15,1.8-22.2,2.8v-17.6c8.2,1,15.7,2.2,23.1,2.7,3.1.2,6.9,2.5,9.3-1.6,1,.9,2.1,1.9,3.3,3,1-1.5,1.8-2.6,2.6-3.7,3.3,1.2,6.5,3.2,9.9,3.4,1.8.1,5.2-2.5,5.5-4.2.6-3.7,3.1-8.2-1.4-11.4Z"/>
</svg>